<svg width="55" height="63" viewBox="0 0 55 63" fill="none" xmlns="http://www.w3.org/2000/svg">
<path d="M11.1796 62.4795C9.14693 62.4795 7.26827 62.1164 5.54359 61.3904C3.88051 60.6189 2.52541 59.6206 1.47829 58.3954C0.492764 57.1248 0 55.7407 0 54.2432V53.6987H7.57624V54.2432C7.57624 54.9693 7.91502 55.6046 8.59257 56.1491C9.33171 56.6483 10.1941 56.8979 11.1796 56.8979H43.3324C44.3179 56.8979 45.1495 56.6483 45.827 56.1491C46.5662 55.6046 46.9357 54.9693 46.9357 54.2432V48.1852C46.9357 47.4591 46.5662 46.8465 45.827 46.3473C45.1495 45.8028 44.3179 45.5305 43.3324 45.5305H11.1796C9.14693 45.5305 7.26827 45.1675 5.54359 44.4414C3.88051 43.67 2.52541 42.6717 1.47829 41.4464C0.492764 40.1758 0 38.7918 0 37.2943V31.2362C0 29.7387 0.492764 28.3774 1.47829 27.1522C2.52541 25.8815 3.88051 24.8832 5.54359 24.1572C7.26827 23.3857 9.14693 23 11.1796 23H43.3324C45.4267 23 47.3053 23.3857 48.9684 24.1572C50.6931 24.8832 52.0482 25.8815 53.0337 27.1522C54.0808 28.3774 54.6044 29.7387 54.6044 31.2362V31.7808H46.9357V31.2362C46.9357 30.5102 46.5662 29.8976 45.827 29.3984C45.1495 28.8539 44.3179 28.5816 43.3324 28.5816H11.1796C10.1941 28.5816 9.33171 28.8539 8.59257 29.3984C7.91502 29.8976 7.57624 30.5102 7.57624 31.2362V37.2943C7.57624 38.0204 7.91502 38.6557 8.59257 39.2002C9.33171 39.6994 10.1941 39.949 11.1796 39.949H43.3324C45.4267 39.949 47.3053 40.3347 48.9684 41.1061C50.6931 41.8322 52.0482 42.8305 53.0337 44.1011C54.0808 45.3263 54.6044 46.6877 54.6044 48.1852V54.2432C54.6044 55.7407 54.0808 57.1248 53.0337 58.3954C52.0482 59.6206 50.6931 60.6189 48.9684 61.3904C47.3053 62.1164 45.4267 62.4795 43.3324 62.4795H11.1796Z" fill="#2C2C2C"/>
<path d="M35 8C35 12.4183 31.4183 16 27 16C22.5817 16 19 12.4183 19 8C19 3.58172 22.5817 0 27 0C31.4183 0 35 3.58172 35 8Z" fill="#48B820"/>
</svg>
