<svg xmlns="http://www.w3.org/2000/svg" width="140" height="40" fill="none" viewBox="0 0 140 40">
  <path fill="#869849" d="M73.266 22.404s-2.675 2.125-4.445 4.797c-1.685 2.543-1.815 2.545-2.36 4.398-.514 1.741-.42 4.609-.42 4.609s3.218.405 7.06.521c5.592.17 9.295-.801 10.753-1.524 2.6-1.288 3.776-2.022 5.395-3.689 1.963-2.02 3.37-4.244 4.68-6.792 1.676-3.262 3.522-4.285 3.522-4.285s-1.802-.45-5.475-1.167c-5.534-1.081-9.271-1.018-12.508-.07-3.576 1.048-6.202 3.202-6.202 3.202Z"/>
  <path fill="#6383A0" d="M58.225 20.211s.371 3.266 1.734 6.14c1.297 2.734 1.227 2.835 2.556 4.3 1.248 1.378 3.834 2.919 3.834 2.919s2.169-2.262 4.434-5.17c3.296-4.23 4.523-7.642 4.705-9.177.326-2.736.34-4.06-.221-6.25-.68-2.656-1.852-4.996-3.366-7.443C69.964 2.397 70.1.393 70.1.393s-1.411 1.141-4.112 3.58c-4.069 3.673-6.117 6.6-7.101 9.638-1.087 3.356-.662 6.6-.662 6.6Z"/>
  <path fill="#F68D3D" d="M51.056 34.83s3.115 1.512 6.427 2.033c3.153.495 3.204.607 5.243.377 1.916-.215 4.716-1.383 4.716-1.383s-.82-2.94-2.16-6.313c-1.953-4.907-4.316-7.747-5.583-8.736-2.26-1.764-3.43-2.505-5.692-3.275-2.742-.935-5.474-1.31-8.489-1.479-3.86-.215-5.571-1.427-5.571-1.427s.238 1.731.92 5.184c1.03 5.203 2.508 8.417 4.673 10.861 2.39 2.7 5.516 4.158 5.516 4.158Z"/>
  <mask id="a" width="141" height="18" x="-.183" y="22.751" fill="#000" maskUnits="userSpaceOnUse">
    <path fill="#fff" d="M-.183 22.751h141v18h-141z"/>
    <path d="M17.69 34.562a3.886 3.886 0 0 1-1.152 2.788c-.351.352-.767.63-1.247.834a3.803 3.803 0 0 1-1.524.307H1.817v-1.965h11.95a1.914 1.914 0 0 0 1.38-.575c.18-.178.32-.386.423-.622a1.96 1.96 0 0 0 .153-.767c0-.268-.051-.52-.153-.757a1.987 1.987 0 0 0-.422-.623 1.914 1.914 0 0 0-1.381-.575H5.749a3.848 3.848 0 0 1-1.525-.306 4.033 4.033 0 0 1-1.256-.834 4.169 4.169 0 0 1-.844-1.255 3.862 3.862 0 0 1-.307-1.533c0-.536.102-1.044.307-1.523a3.95 3.95 0 0 1 2.1-2.089c.48-.21.988-.316 1.525-.316h10.962v1.964H5.749a1.959 1.959 0 0 0-1.39.575 1.96 1.96 0 0 0-.423.632 1.885 1.885 0 0 0-.153.757 1.954 1.954 0 0 0 1.966 1.964h8.018c.543 0 1.051.106 1.524.317.48.204.896.485 1.247.843.358.351.64.766.844 1.245.205.473.307.978.307 1.514Zm19.283 3.928H22.75V24.75h14.223v1.965H24.716v9.811h12.257v1.965Zm-1.669-5.882h-9.61v-1.965h9.61v1.965Zm20.003 5.882H42.168V24.75h1.966v11.776h11.173v1.965Zm17.749 0H59.919V24.75h1.966v11.776h11.172v1.965Zm18.757 0H82.96c-.953 0-1.82-.178-2.6-.536a6.047 6.047 0 0 1-2.004-1.466 6.625 6.625 0 0 1-1.275-2.184 7.878 7.878 0 0 1-.45-2.683c0-.946.15-1.833.45-2.664a6.62 6.62 0 0 1 1.275-2.184 5.985 5.985 0 0 1 2.005-1.476c.78-.364 1.646-.546 2.599-.546h8.852v1.964H82.96c-.678 0-1.288.131-1.832.393a4.045 4.045 0 0 0-1.371 1.054 4.82 4.82 0 0 0-.864 1.552 5.987 5.987 0 0 0-.297 1.907c0 .677.1 1.316.297 1.916a4.94 4.94 0 0 0 .864 1.562 4.1 4.1 0 0 0 1.371 1.044c.543.256 1.154.383 1.832.383h6.886v-3.918h-8.325v-1.965h10.29v7.848Zm21.269 0h-1.966v-3.928h-10.972v-1.954h10.972v-5.893h-7.049c-.672 0-1.305.131-1.899.393a4.84 4.84 0 0 0-1.554 1.054c-.441.44-.793.958-1.055 1.552a4.771 4.771 0 0 0-.383 1.907v6.87H97.21v-6.87c0-.633.08-1.24.24-1.82a7.05 7.05 0 0 1 .69-1.64 7.054 7.054 0 0 1 2.465-2.472c.511-.3 1.058-.53 1.64-.689a6.6 6.6 0 0 1 1.822-.25h9.015v13.74Zm21.921 0h-2.657l-4.124-3.928H122.2v-1.935h7.893a2.89 2.89 0 0 0 1.15-.23c.359-.16.669-.374.931-.642.268-.268.479-.581.633-.94.153-.363.23-.75.23-1.159a2.893 2.893 0 0 0-.863-2.079 2.89 2.89 0 0 0-2.081-.862h-8.996v11.776h-1.966V24.75h10.962c.677 0 1.314.13 1.908.393a4.84 4.84 0 0 1 1.554 1.054c.447.44.799.958 1.055 1.552.262.594.393 1.23.393 1.907 0 .613-.106 1.194-.317 1.743a5.061 5.061 0 0 1-.872 1.466 4.894 4.894 0 0 1-2.935 1.638l4.124 3.987Z"/>
  </mask>
  <path fill="#000" d="M17.69 34.562a3.886 3.886 0 0 1-1.152 2.788c-.351.352-.767.63-1.247.834a3.803 3.803 0 0 1-1.524.307H1.817v-1.965h11.95a1.914 1.914 0 0 0 1.38-.575c.18-.178.32-.386.423-.622a1.96 1.96 0 0 0 .153-.767c0-.268-.051-.52-.153-.757a1.987 1.987 0 0 0-.422-.623 1.914 1.914 0 0 0-1.381-.575H5.749a3.848 3.848 0 0 1-1.525-.306 4.033 4.033 0 0 1-1.256-.834 4.169 4.169 0 0 1-.844-1.255 3.862 3.862 0 0 1-.307-1.533c0-.536.102-1.044.307-1.523a3.95 3.95 0 0 1 2.1-2.089c.48-.21.988-.316 1.525-.316h10.962v1.964H5.749a1.959 1.959 0 0 0-1.39.575 1.96 1.96 0 0 0-.423.632 1.885 1.885 0 0 0-.153.757 1.954 1.954 0 0 0 1.966 1.964h8.018c.543 0 1.051.106 1.524.317.48.204.896.485 1.247.843.358.351.64.766.844 1.245.205.473.307.978.307 1.514Zm19.283 3.928H22.75V24.75h14.223v1.965H24.716v9.811h12.257v1.965Zm-1.669-5.882h-9.61v-1.965h9.61v1.965Zm20.003 5.882H42.168V24.75h1.966v11.776h11.173v1.965Zm17.749 0H59.919V24.75h1.966v11.776h11.172v1.965Zm18.757 0H82.96c-.953 0-1.82-.178-2.6-.536a6.047 6.047 0 0 1-2.004-1.466 6.625 6.625 0 0 1-1.275-2.184 7.878 7.878 0 0 1-.45-2.683c0-.946.15-1.833.45-2.664a6.62 6.62 0 0 1 1.275-2.184 5.985 5.985 0 0 1 2.005-1.476c.78-.364 1.646-.546 2.599-.546h8.852v1.964H82.96c-.678 0-1.288.131-1.832.393a4.045 4.045 0 0 0-1.371 1.054 4.82 4.82 0 0 0-.864 1.552 5.987 5.987 0 0 0-.297 1.907c0 .677.1 1.316.297 1.916a4.94 4.94 0 0 0 .864 1.562 4.1 4.1 0 0 0 1.371 1.044c.543.256 1.154.383 1.832.383h6.886v-3.918h-8.325v-1.965h10.29v7.848Zm21.269 0h-1.966v-3.928h-10.972v-1.954h10.972v-5.893h-7.049c-.672 0-1.305.131-1.899.393a4.84 4.84 0 0 0-1.554 1.054c-.441.44-.793.958-1.055 1.552a4.771 4.771 0 0 0-.383 1.907v6.87H97.21v-6.87c0-.633.08-1.24.24-1.82a7.05 7.05 0 0 1 .69-1.64 7.054 7.054 0 0 1 2.465-2.472c.511-.3 1.058-.53 1.64-.689a6.6 6.6 0 0 1 1.822-.25h9.015v13.74Zm21.921 0h-2.657l-4.124-3.928H122.2v-1.935h7.893a2.89 2.89 0 0 0 1.15-.23c.359-.16.669-.374.931-.642.268-.268.479-.581.633-.94.153-.363.23-.75.23-1.159a2.893 2.893 0 0 0-.863-2.079 2.89 2.89 0 0 0-2.081-.862h-8.996v11.776h-1.966V24.75h10.962c.677 0 1.314.13 1.908.393a4.84 4.84 0 0 1 1.554 1.054c.447.44.799.958 1.055 1.552.262.594.393 1.23.393 1.907 0 .613-.106 1.194-.317 1.743a5.061 5.061 0 0 1-.872 1.466 4.894 4.894 0 0 1-2.935 1.638l4.124 3.987Z"/>
  <path fill="#FEFEFA" d="m17.382 36.105 1.836.794.003-.009-1.839-.785Zm-2.09 2.079-.785-1.84-.009.004.793 1.836Zm-13.475.307h-2v2h2v-2Zm0-1.965v-2h-2v2h2Zm13.33-.575-1.413-1.414-.013.013-.012.013 1.439 1.389Zm.423-.622 1.835.794.004-.009.004-.008-1.843-.777Zm-.422-2.147-1.44 1.39.013.012.013.013 1.414-1.415Zm-.614-.421-.793 1.836.793-1.836ZM2.968 31.467 1.542 32.87l.012.012.013.013 1.4-1.428Zm-.844-1.255-1.84.786.005.01.004.01 1.83-.806Zm0-3.056-1.83-.806-.005.01-.004.01 1.839.786Zm2.1-2.089.784 1.84.01-.005.01-.004-.804-1.83Zm12.487-.316h2v-2h-2v2Zm0 1.964v2h2v-2h-2Zm-11.73.153-.775-1.843-.009.004-.008.003.793 1.836Zm-1.045 1.054 1.836.795.004-.01.003-.008-1.843-.777Zm0 1.524-1.843.776.004.01.004.008 1.835-.794Zm1.046 1.044-.793 1.836.008.004.01.004.775-1.844Zm10.31.47-.814 1.826.014.007.015.006.784-1.84Zm1.246.843-1.426 1.402.013.013.012.012 1.401-1.427Zm.844 1.245-1.84.786.005.009 1.835-.795Zm19.59 5.443v2h2v-2h-2Zm-14.222 0h-2v2h2v-2Zm0-13.74v-2h-2v2h2Zm14.223 0h2v-2h-2v2Zm0 1.964v2h2v-2h-2Zm-12.257 0v-2h-2v2h2Zm0 9.811h-2v2h2v-2Zm12.257 0h2v-2h-2v2Zm-1.669-3.918v2h2v-2h-2Zm-9.61 0h-2v2h2v-2Zm0-1.965v-2h-2v2h2Zm9.61 0h2v-2h-2v2Zm20.003 7.848v2h2v-2h-2Zm-13.139 0h-2v2h2v-2Zm0-13.74v-2h-2v2h2Zm1.966 0h2v-2h-2v2Zm0 11.775h-2v2h2v-2Zm11.173 0h2v-2h-2v2Zm17.75 1.965v2h2v-2h-2Zm-13.14 0h-2v2h2v-2Zm0-13.74v-2h-2v2h2Zm1.967 0h2v-2h-2v2Zm0 11.775h-2v2h2v-2Zm11.172 0h2v-2h-2v2Zm18.757 1.965v2h2v-2h-2Zm-13.456-2.003-1.496 1.328.008.008 1.488-1.336Zm-1.275-7.53 1.88.68.002-.005-1.882-.676Zm1.275-2.185-1.495-1.329v.001l1.495 1.328Zm2.005-1.476.834 1.818.012-.006-.846-1.812Zm11.45-.546h2v-2h-2v2Zm0 1.964v2h2v-2h-2Zm-10.683.393.86 1.806.008-.004-.868-1.802Zm-1.371 1.054-1.53-1.29v.002l1.53 1.288Zm-.864 1.552-1.89-.651-.004.009-.003.009 1.897.633Zm0 3.823-1.899.627.004.012.004.012 1.891-.651Zm.864 1.562-1.54 1.277.01.012.01.011 1.52-1.3Zm1.371 1.044-.86 1.806.01.004.85-1.81Zm8.718.383v2h2v-2h-2Zm0-3.918h2v-2h-2v2Zm-8.325 0h-2v2h2v-2Zm0-1.965v-2h-2v2h2Zm10.29 0h2v-2h-2v2Zm21.27 7.848v2h2v-2h-2Zm-1.966 0h-2v2h2v-2Zm0-3.929h2v-2h-2v2Zm-10.972 0h-2v2h2v-2Zm0-1.954v-2h-2v2h2Zm10.972 0v2h2v-2h-2Zm0-5.893h2v-2h-2v2Zm-8.948.393.789 1.837.009-.003.008-.004-.806-1.83Zm-1.554 1.054 1.414 1.415.005-.005.005-.005-1.424-1.405Zm-1.055 1.552-1.83-.807-.003.008-.004.008 1.837.791Zm-.383 8.777v2h2v-2h-2Zm-1.966 0h-2v2h2v-2Zm.24-8.69-1.925-.545-.002.007-.002.007 1.928.53Zm.69-1.64-1.724-1.013-.004.007 1.728 1.007Zm2.465-2.471-1.013-1.725-.01.006 1.023 1.719Zm1.64-.69.529 1.929.01-.003.01-.003-.549-1.923Zm10.837-.25h2v-2h-2v2Zm21.921 13.74v2h4.947l-3.557-3.438-1.39 1.439Zm-2.657 0-1.379 1.449.579.552h.8v-2Zm-4.124-3.928 1.38-1.448-.579-.552h-.801v2Zm-6.022 0h-2v2h2v-2Zm0-1.935v-2h-2v2h2Zm9.043-.23.788 1.838.013-.005.014-.007-.815-1.826Zm.931-.642-1.414-1.415-.008.009-.009.008 1.431 1.398Zm.633-.94 1.838.79.005-.012-1.843-.777Zm-.633-3.238-1.431 1.398.017.017.017.017 1.397-1.432Zm-11.077-.862v-2h-2v2h2Zm0 11.776v2h2v-2h-2Zm-1.966 0h-2v2h2v-2Zm0-13.74v-2h-2v2h2Zm12.87.393-.806 1.83.008.004.009.003.789-1.837Zm1.554 1.054-1.424 1.404.01.01.01.01 1.404-1.424Zm1.055 1.552-1.837.79.003.009.004.008 1.83-.807Zm.076 3.65 1.865.725.002-.008-1.867-.717Zm-.872 1.466 1.511 1.31.005-.006.005-.005-1.521-1.299ZM132.5 33.94l.982 1.743.007-.004-.989-1.739Zm-1.621.566-.325-1.974-3.926.647 2.861 2.765 1.39-1.438Zm-115.19.057c0 .294-.053.54-.146.757l3.678 1.571c.317-.74.468-1.523.468-2.328h-4Zm-.142.748a1.976 1.976 0 0 1-.422.625l2.827 2.83a5.97 5.97 0 0 0 1.266-1.866l-3.671-1.589Zm-.422.625a1.92 1.92 0 0 1-.618.41l1.569 3.679a5.916 5.916 0 0 0 1.876-1.259l-2.827-2.83Zm-.627.413a1.81 1.81 0 0 1-.731.143v4c.8 0 1.58-.153 2.318-.471l-1.587-3.672Zm-.731.143H1.817v4h11.95v-4Zm-9.95 2v-1.965h-4v1.965h4Zm-2 .035h11.95v-4H1.817v4Zm11.95 0c.529 0 1.057-.1 1.56-.317l-1.586-3.672a.168.168 0 0 1 .032-.01c.008-.002.007 0-.006 0v4Zm1.56-.317c.47-.203.897-.492 1.26-.869l-2.878-2.777a.155.155 0 0 1 .023-.02l.009-.006 1.586 3.672Zm1.234-.843c.36-.36.643-.78.844-1.243l-3.67-1.589-.003.006.002-.003 2.827 2.83Zm.852-1.26c.207-.494.31-1.014.31-1.544h-4v.005a.042.042 0 0 1 .002-.011l.002-.004 3.686 1.553Zm.31-1.544a3.87 3.87 0 0 0-.318-1.551l-3.67 1.589a.158.158 0 0 1-.01-.03c-.002-.01-.002-.014-.002-.008h4Zm-.318-1.551a3.988 3.988 0 0 0-.844-1.243l-2.827 2.83v-.001l-.002-.003c-.002-.002 0-.001.002.006l3.671-1.59Zm-.818-1.218a3.88 3.88 0 0 0-1.26-.868l-1.586 3.672-.009-.005a.155.155 0 0 1-.023-.02l2.878-2.779Zm-1.26-.868a3.913 3.913 0 0 0-1.56-.317v4h.006a.18.18 0 0 1-.032-.011l1.586-3.672Zm-1.56-.317H5.749v4h8.018v-4Zm-8.018 0c-.276 0-.517-.051-.74-.147l-1.57 3.68a5.862 5.862 0 0 0 2.31.467v-4Zm-.74-.147a2.034 2.034 0 0 1-.64-.421l-2.802 2.855a6.032 6.032 0 0 0 1.873 1.246l1.568-3.68Zm-.615-.396a2.169 2.169 0 0 1-.44-.659l-3.66 1.612a6.161 6.161 0 0 0 1.248 1.852l2.852-2.805Zm-.43-.638a1.864 1.864 0 0 1-.147-.748h-4c0 .802.152 1.58.468 2.319l3.678-1.571Zm-.147-.748c0-.275.05-.514.146-.738l-3.678-1.57a5.838 5.838 0 0 0-.468 2.308h4Zm.137-.717c.117-.264.26-.47.427-.637l-2.827-2.83a6.046 6.046 0 0 0-1.26 1.855l3.66 1.612Zm.427-.637c.172-.172.376-.31.627-.418l-1.568-3.68a5.95 5.95 0 0 0-1.886 1.268l2.827 2.83Zm.648-.427c.22-.096.453-.147.72-.147v-4c-.807 0-1.59.16-2.33.485l1.61 3.662Zm.72-.147h10.962v-4H5.749v4Zm8.962-2v1.964h4v-1.964h-4Zm2-.036H5.749v4h10.962v-4Zm-10.962 0c-.53 0-1.05.102-1.543.31l1.551 3.687-.003.001a.066.066 0 0 1-.01.002h.005v-4Zm-1.56.317c-.464.2-.883.483-1.244.843l2.827 2.83-.003.002.006-.003-1.586-3.672Zm-1.244.843c-.37.37-.653.8-.852 1.27L5.78 28.7c.004-.01.006-.01.003-.007a.097.097 0 0 1-.01.013l-2.827-2.83ZM2.1 27.128a3.884 3.884 0 0 0-.318 1.551h4c0-.006 0-.003-.002.007a.16.16 0 0 1-.01.03L2.1 27.128Zm-.318 1.551c0 .53.103 1.05.31 1.544l3.686-1.554.002.004a.074.074 0 0 1 .002.01v-.004h-4ZM2.1 30.24c.2.464.483.883.844 1.243l2.827-2.83v.001l.002.003c.002.002 0 .001-.002-.006L2.1 30.241Zm.844 1.243c.36.36.78.643 1.244.843l1.586-3.672-.006-.003.002.002c.001 0 .001.001 0 0l-2.826 2.83Zm1.261.85a3.96 3.96 0 0 0 1.543.31v-4h-.005.004l.006.002.002.001h.001l-1.55 3.688Zm1.543.31h8.018v-4H5.749v4Zm8.018 0c.277 0 .506.052.71.143l1.628-3.653a5.703 5.703 0 0 0-2.338-.49v4Zm.74.156c.249.106.444.242.605.406l2.853-2.804a5.837 5.837 0 0 0-1.89-1.281l-1.568 3.68Zm.63.431c.165.161.3.356.406.604l3.678-1.571a5.835 5.835 0 0 0-1.282-1.888l-2.802 2.855Zm.41.613c.091.211.142.444.142.72h4a5.79 5.79 0 0 0-.471-2.31l-3.671 1.59Zm21.426 2.648H22.75v4h14.223v-4Zm-12.223 2V24.75h-4v13.74h4Zm-2-11.74h14.223v-4H22.75v4Zm12.223-2v1.964h4v-1.964h-4Zm2-.036H24.716v4h12.257v-4Zm-14.257 2v9.811h4v-9.81h-4Zm2 11.811h12.257v-4H24.716v4Zm10.257-2v1.965h4v-1.965h-4Zm.331-5.918h-9.61v4h9.61v-4Zm-7.61 2v-1.965h-4v1.965h4Zm-2 .035h9.61v-4h-9.61v4Zm7.61-2v1.965h4v-1.965h-4Zm22.003 5.848H42.168v4h13.14v-4Zm-11.139 2V24.75h-4v13.74h4Zm-2-11.74h1.966v-4h-1.966v4Zm-.034-2v11.775h4V24.751h-4Zm2 13.775h11.173v-4H44.134v4Zm9.173-2v1.965h4v-1.965h-4Zm19.75-.035h-13.14v4h13.14v-4Zm-11.14 2V24.75h-4v13.74h4Zm-2-11.74h1.967v-4h-1.966v4Zm-.033-2v11.775h4V24.751h-4Zm2 13.775h11.172v-4h-11.17v4Zm9.172-2v1.965h4v-1.965h-4Zm20.757-.035H82.96v4h8.852v-4Zm-8.852 0c-.697 0-1.275-.13-1.766-.355l-1.667 3.636c1.07.49 2.224.719 3.433.719v-4Zm-1.766-.355a4.05 4.05 0 0 1-1.35-.984l-2.976 2.672a8.048 8.048 0 0 0 2.66 1.948l1.666-3.636Zm-1.342-.976a4.628 4.628 0 0 1-.889-1.532L75.2 34.98a8.625 8.625 0 0 0 1.662 2.836l2.991-2.656Zm-.889-1.532a5.88 5.88 0 0 1-.333-2.007h-4c0 1.166.185 2.29.569 3.359l3.764-1.352Zm-.333-2.007c0-.73.115-1.386.332-1.983L75.2 28.276a9.766 9.766 0 0 0-.57 3.345h4Zm.333-1.988c.22-.615.52-1.117.89-1.533l-2.992-2.655a8.625 8.625 0 0 0-1.662 2.836l3.764 1.352Zm.888-1.532c.368-.413.809-.74 1.343-.986l-1.667-3.636a7.986 7.986 0 0 0-2.666 1.965l2.99 2.657Zm1.356-.992c.488-.228 1.061-.358 1.753-.358v-4c-1.214 0-2.373.233-3.445.734l1.692 3.624Zm1.753-.358h8.852v-4H82.96v4Zm6.852-2v1.964h4v-1.964h-4Zm2-.036H82.96v4h8.852v-4Zm-8.852 0c-.941 0-1.854.183-2.7.591l1.736 3.604c.241-.116.55-.195.964-.195v-4Zm-2.691.587a6.046 6.046 0 0 0-2.041 1.57l3.057 2.58c.19-.226.418-.403.702-.538l-1.718-3.612Zm-2.043 1.572a6.822 6.822 0 0 0-1.224 2.189l3.782 1.302c.132-.382.304-.68.503-.915l-3.06-2.576Zm-1.23 2.207a7.985 7.985 0 0 0-.4 2.54h4c0-.48.07-.9.195-1.274l-3.795-1.266Zm-.4 2.54c0 .875.129 1.726.398 2.543l3.799-1.254a4.08 4.08 0 0 1-.197-1.29h-4Zm.406 2.567c.277.804.678 1.54 1.215 2.188l3.079-2.554a2.942 2.942 0 0 1-.512-.936l-3.782 1.302Zm1.235 2.211a6.101 6.101 0 0 0 2.032 1.55l1.718-3.612a2.103 2.103 0 0 1-.711-.539L78.238 36.4Zm2.04 1.554c.842.396 1.749.573 2.683.573v-4c-.422 0-.736-.078-.981-.193l-1.702 3.62Zm2.683.573h6.886v-4H82.96v4Zm8.886-2v-3.918h-4v3.918h4Zm-2-5.918h-8.325v4h8.325v-4Zm-6.325 2v-1.965h-4v1.965h4Zm-2 .035h10.29v-4h-10.29v4Zm8.29-2v7.848h4v-7.848h-4Zm23.27 5.848h-1.966v4h1.966v-4Zm.034 2v-3.929h-4v3.929h4Zm-2-5.929h-10.972v4h10.972v-4Zm-8.972 2v-1.954h-4v1.954h4Zm-2 .046h10.972v-4h-10.972v4Zm12.972-2v-5.893h-4v5.893h4Zm-2-7.893h-7.049v4h7.049v-4Zm-7.049 0c-.94 0-1.848.185-2.705.563l1.612 3.66c.332-.146.69-.223 1.093-.223v-4Zm-2.689.555c-.824.355-1.56.85-2.188 1.487l2.848 2.81a2.85 2.85 0 0 1 .919-.622l-1.579-3.675ZM99.2 26.747a7.054 7.054 0 0 0-1.471 2.16l3.659 1.614c.166-.377.38-.686.639-.944l-2.827-2.83Zm-1.479 2.176a6.77 6.77 0 0 0-.546 2.698h4c0-.418.077-.784.22-1.116l-3.674-1.582Zm-.546 2.698v6.87h4v-6.87h-4Zm2 4.87H97.21v4h1.966v-4Zm.034 2v-6.87h-4v6.87h4Zm0-6.87c0-.462.058-.89.168-1.29L95.52 29.27a8.835 8.835 0 0 0-.311 2.35h4Zm.164-1.276a5.02 5.02 0 0 1 .494-1.176l-3.456-2.014a9.049 9.049 0 0 0-.887 2.1l3.849 1.09Zm.49-1.17a4.92 4.92 0 0 1 .764-.988l-2.828-2.83a8.901 8.901 0 0 0-1.384 1.791l3.448 2.028Zm.764-.988c.306-.306.638-.564.998-.778l-2.043-3.438a9.08 9.08 0 0 0-1.783 1.387l2.828 2.83Zm.989-.772c.357-.21.741-.372 1.157-.486l-1.059-3.858a8.767 8.767 0 0 0-2.123.894l2.025 3.45Zm1.177-.492a4.605 4.605 0 0 1 1.273-.172v-4c-.81 0-1.603.107-2.371.326l1.098 3.846Zm1.273-.172h9.015v-4h-9.015v4Zm7.015-2v13.74h4V24.75h-4Zm23.921 11.74h-2.657v4h2.657v-4Zm-1.277.551-4.124-3.928-2.759 2.896 4.124 3.929 2.759-2.897Zm-5.504-4.48H122.2v4h6.022v-4Zm-4.022 2v-1.935h-4v1.935h4Zm-2 .065h7.893v-4H122.2v4Zm7.893 0c.665 0 1.318-.126 1.938-.392l-1.575-3.677a.892.892 0 0 1-.363.069v4Zm1.965-.404a4.98 4.98 0 0 0 1.546-1.07l-2.861-2.796a.991.991 0 0 1-.314.213l1.629 3.653Zm1.529-1.053c.454-.453.807-.98 1.058-1.566l-3.676-1.577a.971.971 0 0 1-.209.313l2.827 2.83Zm1.063-1.577c.26-.619.387-1.27.387-1.936h-4a.96.96 0 0 1-.073.382l3.686 1.554Zm.387-1.936c0-.666-.127-1.32-.392-1.939l-3.676 1.577c.041.096.068.21.068.361h4Zm-.392-1.939a4.85 4.85 0 0 0-1.075-1.572l-2.793 2.863a.85.85 0 0 1 .192.286l3.676-1.577Zm-1.041-1.538a4.847 4.847 0 0 0-1.573-1.073l-1.575 3.677a.846.846 0 0 1 .287.191l2.861-2.795Zm-1.573-1.073a4.897 4.897 0 0 0-1.938-.392v4c.152 0 .267.027.363.069l1.575-3.677Zm-1.938-.392h-8.996v4h8.996v-4Zm-10.996 2v11.776h4V26.715h-4Zm2 9.776h-1.966v4h1.966v-4Zm.034 2V24.75h-4v13.74h4Zm-2-11.74h10.962v-4H119.13v4Zm10.962 0c.412 0 .772.078 1.102.223l1.612-3.66a6.676 6.676 0 0 0-2.714-.563v4Zm1.119.23c.364.157.665.364.919.621l2.847-2.809a6.848 6.848 0 0 0-2.187-1.487l-1.579 3.675Zm.939.642c.258.254.465.554.622.918l3.674-1.582a6.847 6.847 0 0 0-1.489-2.186l-2.807 2.85Zm.629.934c.145.33.223.688.223 1.1h4c0-.943-.184-1.855-.563-2.715l-3.66 1.615Zm.223 1.1c0 .378-.064.715-.184 1.026l3.734 1.434c.303-.787.45-1.612.45-2.46h-4Zm-.181 1.019a3.061 3.061 0 0 1-.529.892l3.042 2.597a7.085 7.085 0 0 0 1.216-2.04l-3.729-1.45Zm-.52.88a2.983 2.983 0 0 1-.791.645l1.978 3.477a6.982 6.982 0 0 0 1.836-1.502l-3.023-2.62Zm-.784.641a2.899 2.899 0 0 1-.964.334l.65 3.947a6.894 6.894 0 0 0 2.278-.796l-1.964-3.485Zm-2.029 3.746 4.124 3.986 2.78-2.877-4.124-3.985-2.78 2.876Z" mask="url(#a)"/>
</svg>
